# xmcd
#
# Track frame offsets: 
#        150
#        17910
#        33247
#        45847
#        62182
#        78872
#        93997
#        110837
#        124325
#        140992
#        159255
#
# Disc length: 2447 seconds
#
# Revision: 0
# Processed by: cddbd v1.5.2PL0 Copyright (c) Steve Scherf et al.
# Submitted via: ExactAudioCopy v0.99pb5
#
DISCID=8e098d0b
DTITLE=Secondhand Serenade - Hear Me Now
DYEAR=2010
DGENRE=Alternative
TTITLE0=Distance
TTITLE1=Something More
TTITLE2=Stay Away
TTITLE3=You And I
TTITLE4=Is There Anybody Out There
TTITLE5=Reach For The Sky
TTITLE6=Only Hope
TTITLE7=So Long
TTITLE8=World Turns
TTITLE9=Nightmares
TTITLE10=Hear Me Now (Feat. Juliet Simms)
EXTD=
EXTT0=
EXTT1=
EXTT2=
EXTT3=
EXTT4=
EXTT5=
EXTT6=
EXTT7=
EXTT8=
EXTT9=
EXTT10=
PLAYORDER=
